# File created by Blade
# Date/Time:  Mon Sep 22 15:39:46 2014
# Frame Rate: 120.000 fps
#------------------------------------------------------
:FULLY-SPECIFIED
:DEGREES
1115
root 2.166138 37.025952 2.424091 -2.450937 -3.004668 1.861935
RightUpLeg 10.513728 -6.325695 -3.948702
RightLeg -5.308571 -0.000000 0.000000
RightFoot -12.481992 -14.220510 15.698361
RightToeBase 15.873509 -0.000000 -0.000000
LeftUpLeg 8.857670 1.482522 1.530100
LeftLeg -2.409629 -0.000000 0.000000
LeftFoot -10.064694 14.053632 -17.538410
LeftToeBase 9.700817 -0.000000 -0.000000
Spine 1.384497 13.840878 -2.826681
RightShoulder 10.807013 1.070222 -30.152636
RightArm 71.428496 31.198055 107.226480
RightForeArm 79.050521 0.000000 124.305111
RightHand 16.274303 -0.000000 -4.316751
RightHandThumb1 -24.326973 -0.000000 -32.862282
LeftShoulder -6.402615 36.377839 -1.468926
LeftArm 46.420012 17.285235 -60.047510
LeftForeArm 22.703993 -0.000000 21.903295
LeftHand -14.108091 -0.000000 -7.308656
LeftHandThumb1 -26.253704 0.000000 33.147579
Head -4.671356 -8.541185 -3.903159
1116
root 2.163622 37.024489 2.423856 -2.438986 -3.012645 1.873160
RightUpLeg 10.515166 -6.372447 -3.964630
RightLeg -5.336279 -0.000000 0.000000
RightFoot -12.460393 -14.160275 15.687060
RightToeBase 15.865376 -0.000000 -0.000000
LeftUpLeg 8.841404 1.526907 1.527550
LeftLeg -2.398856 -0.000000 0.000000
LeftFoot -10.065765 14.012657 -17.535822
LeftToeBase 9.693345 -0.000000 -0.000000
Spine 1.364875 13.833903 -2.872861
RightShoulder 10.833498 1.105247 -30.092143
RightArm 71.355639 31.088763 106.884178
RightForeArm 79.144580 -0.000000 124.252666
RightHand 16.119239 0.000000 -3.844916
RightHandThumb1 -24.326973 -0.000000 -32.862282
LeftShoulder -6.446168 36.431913 -1.490672
LeftArm 46.452181 17.369868 -59.958100
LeftForeArm 22.635336 -0.000000 22.189720
LeftHand -14.131713 -0.000000 -7.200545
LeftHandThumb1 -26.253704 0.000000 33.147579
Head -4.741037 -8.474513 -3.891445
1117
root 2.159842 37.023033 2.423566 -2.406724 -3.038776 1.876281
RightUpLeg 10.497039 -6.400871 -3.964445
RightLeg -5.372560 -0.000000 0.000000
RightFoot -12.463695 -14.112063 15.695879
RightToeBase 15.932715 -0.000000 -0.000000
LeftUpLeg 8.817818 1.592499 1.535545
LeftLeg -2.409489 -0.000000 0.000000
LeftFoot -10.061010 13.977659 -17.537290
LeftToeBase 9.701611 -0.000000 -0.000000
Spine 1.302412 13.842225 -2.921284
RightShoulder 10.873635 1.131133 -30.067351
RightArm 71.265456 30.990404 106.514307
RightForeArm 78.971408 0.000000 124.222635
RightHand 16.119261 -0.000000 -4.248158
RightHandThumb1 -24.326973 -0.000000 -32.862282
LeftShoulder -6.476851 36.469261 -1.479372
LeftArm 46.457173 17.464647 -59.908106
LeftForeArm 22.534834 -0.000000 22.420936
LeftHand -14.000075 -0.000000 -7.248477
LeftHandThumb1 -26.253704 0.000000 33.147579
Head -4.750550 -8.420557 -3.860389
1118
root 2.156444 37.021501 2.423714 -2.361413 -3.067003 1.876317
RightUpLeg 10.471250 -6.408473 -3.959535
RightLeg -5.416831 -0.000000 0.000000
RightFoot -12.425635 -14.080469 15.662037
RightToeBase 15.849593 -0.000000 -0.000000
LeftUpLeg 8.790661 1.672990 1.547481
LeftLeg -2.438842 -0.000000 0.000000
LeftFoot -10.038099 13.936391 -17.522265
LeftToeBase 9.676935 -0.000000 -0.000000
Spine 1.220146 13.861891 -2.971456
RightShoulder 10.899311 1.155267 -30.089435
RightArm 71.183367 30.905920 106.187667
RightForeArm 78.890914 -0.000000 124.140525
RightHand 16.105228 -0.000000 -4.282337
RightHandThumb1 -24.326973 -0.000000 -32.862282
LeftShoulder -6.504942 36.497965 -1.472915
LeftArm 46.467026 17.582839 -59.831701
LeftForeArm 22.472689 -0.000000 22.632251
LeftHand -13.979980 -0.000000 -7.168407
LeftHandThumb1 -26.253704 0.000000 33.147579
Head -4.731808 -8.386740 -3.807602
1119
root 2.154619 37.020195 2.424786 -2.322035 -3.117904 1.876853
RightUpLeg 10.445529 -6.400219 -3.957274
RightLeg -5.457253 -0.000000 0.000000
RightFoot -12.411195 -14.041286 15.683020
RightToeBase 15.921742 -0.000000 -0.000000
LeftUpLeg 8.775747 1.752882 1.556885
LeftLeg -2.468315 -0.000000 0.000000
LeftFoot -10.033483 13.897124 -17.521225
LeftToeBase 9.728572 -0.000000 -0.000000
Spine 1.127136 13.901008 -3.013203
RightShoulder 10.960367 1.117412 -30.143151
RightArm 71.216255 30.852736 105.893951
RightForeArm 78.839097 0.000000 124.025762
RightHand 15.998475 -0.000000 -4.568249
RightHandThumb1 -24.326973 -0.000000 -32.862282
LeftShoulder -6.536250 36.544227 -1.476872
LeftArm 46.504662 17.700994 -59.752273
LeftForeArm 22.434733 -0.000000 22.794744
LeftHand -13.926555 -0.000000 -7.149076
LeftHandThumb1 -26.253704 0.000000 33.147579
Head -4.661659 -8.390208 -3.763526
1120
root 2.151482 37.018897 2.423794 -2.266059 -3.166547 1.870333
RightUpLeg 10.393128 -6.398539 -3.937940
RightLeg -5.486699 -0.000000 0.000000
RightFoot -12.390155 -14.028350 15.644719
RightToeBase 15.930873 -0.000000 -0.000000
LeftUpLeg 8.748556 1.838853 1.572194
LeftLeg -2.514472 -0.000000 0.000000
LeftFoot -10.033883 13.872048 -17.558246
LeftToeBase 9.749773 -0.000000 -0.000000
Spine 1.015408 13.918503 -3.060963
RightShoulder 11.035900 1.107400 -30.202134
RightArm 71.226017 30.829446 105.582939
RightForeArm 78.921339 0.000000 123.827602
RightHand 15.945510 0.000000 -4.638306
RightHandThumb1 -24.326973 -0.000000 -32.862282
LeftShoulder -6.573053 36.524858 -1.477812
LeftArm 46.475962 17.825182 -59.716757
LeftForeArm 22.445870 -0.000000 22.920266
LeftHand -14.011327 -0.000000 -7.144315
LeftHandThumb1 -26.253704 0.000000 33.147579
Head -4.559594 -8.395805 -3.656221
1121
root 2.148035 37.018376 2.423145 -2.206599 -3.220658 1.858223
RightUpLeg 10.344043 -6.354273 -3.910329
RightLeg -5.525268 -0.000000 0.000000
RightFoot -12.363076 -14.055233 15.609525
RightToeBase 15.771791 -0.000000 -0.000000
LeftUpLeg 8.718716 1.940580 1.598304
LeftLeg -2.559966 -0.000000 0.000000
LeftFoot -9.988307 13.834880 -17.505324
LeftToeBase 9.723521 -0.000000 -0.000000
Spine 0.892710 13.989700 -3.110450
RightShoulder 11.087065 1.130338 -30.239228
RightArm 71.188092 30.869272 105.156078
RightForeArm 79.031575 -0.000000 123.582041
RightHand 15.964000 -0.000000 -4.736783
RightHandThumb1 -24.326973 -0.000000 -32.862282
LeftShoulder -6.562046 36.502393 -1.444931
LeftArm 46.466677 17.947925 -59.697830
LeftForeArm 22.455695 -0.000000 22.973382
LeftHand -14.005322 0.000000 -7.163890
LeftHandThumb1 -26.253704 0.000000 33.147579
Head -4.441393 -8.482186 -3.540961
1122
root 2.144987 37.018626 2.420645 -2.140105 -3.264089 1.850038
RightUpLeg 10.283375 -6.291524 -3.882379
RightLeg -5.561335 -0.000000 0.000000
RightFoot -12.353847 -14.077027 15.663590
RightToeBase 15.755565 -0.000000 -0.000000
LeftUpLeg 8.675573 2.000658 1.613821
LeftLeg -2.601926 -0.000000 0.000000
LeftFoot -9.952619 13.825237 -17.495566
LeftToeBase 9.702590 -0.000000 -0.000000
Spine 0.760386 14.047378 -3.171288
RightShoulder 11.119015 1.129011 -30.269820
RightArm 71.202462 30.878046 104.727458
RightForeArm 79.178868 -0.000000 123.243020
RightHand 15.845045 -0.000000 -4.513284
RightHandThumb1 -24.326973 -0.000000 -32.862282
LeftShoulder -6.567718 36.511654 -1.432751
LeftArm 46.513698 18.055191 -59.643108
LeftForeArm 22.437506 -0.000000 22.971711
LeftHand -13.912070 -0.000000 -7.212685
LeftHandThumb1 -26.253704 0.000000 33.147579
Head -4.324119 -8.580493 -3.420125
1123
root 2.144498 37.018858 2.420918 -2.097805 -3.295861 1.846227
RightUpLeg 10.250236 -6.251423 -3.870069
RightLeg -5.587792 -0.000000 0.000000
RightFoot -12.344096 -14.078414 15.690554
RightToeBase 15.919161 -0.000000 -0.000000
LeftUpLeg 8.664966 2.018673 1.615686
LeftLeg -2.655174 -0.000000 0.000000
LeftFoot -9.942784 13.842441 -17.528560
LeftToeBase 9.740738 -0.000000 -0.000000
Spine 0.655450 14.087693 -3.208860
RightShoulder 11.170821 1.135138 -30.333969
RightArm 71.224689 30.919411 104.276222
RightForeArm 79.466793 -0.000000 122.837266
RightHand 15.617250 -0.000000 -4.162677
RightHandThumb1 -24.326973 -0.000000 -32.862282
LeftShoulder -6.583923 36.509334 -1.451527
LeftArm 46.542523 18.146437 -59.606201
LeftForeArm 22.514263 -0.000000 22.945023
LeftHand -13.851446 0.000000 -7.323581
LeftHandThumb1 -26.253704 0.000000 33.147579
Head -4.206566 -8.660626 -3.313335
